<mxfile host="app.diagrams.net" modified="2021-12-19T14:07:26.516Z" agent="5.0 (X11)" etag="RWV_KBaJazG28yAE2Ai7" version="16.0.0" type="github" pages="2">
  <diagram id="K_8tTAwabGrNAI0qsq2V" name="dns hierarchy">
    <mxGraphModel dx="2200" dy="1863" grid="1" gridSize="10" guides="1" tooltips="1" connect="1" arrows="1" fold="1" page="1" pageScale="1" pageWidth="850" pageHeight="1100" math="0" shadow="0">
      <root>
        <mxCell id="0" />
        <mxCell id="1" parent="0" />
        <mxCell id="gX_tS0gkBQfEGyVwR0J8-8" value="" style="rounded=0;whiteSpace=wrap;html=1;dashed=1;fillOpacity=0;" vertex="1" parent="1">
          <mxGeometry x="51" y="107" width="249" height="220" as="geometry" />
        </mxCell>
        <mxCell id="uLhbfS_WnH59kJ8CV1LQ-3" value="" style="edgeStyle=orthogonalEdgeStyle;rounded=0;orthogonalLoop=1;jettySize=auto;html=1;" parent="1" source="uLhbfS_WnH59kJ8CV1LQ-1" target="uLhbfS_WnH59kJ8CV1LQ-2" edge="1">
          <mxGeometry relative="1" as="geometry" />
        </mxCell>
        <mxCell id="uLhbfS_WnH59kJ8CV1LQ-1" value="" style="shape=actor;whiteSpace=wrap;html=1;" parent="1" vertex="1">
          <mxGeometry x="-60" y="160" width="40" height="60" as="geometry" />
        </mxCell>
        <mxCell id="uLhbfS_WnH59kJ8CV1LQ-2" value="web Browser" style="rounded=1;whiteSpace=wrap;html=1;" parent="1" vertex="1">
          <mxGeometry x="75" y="160" width="120" height="60" as="geometry" />
        </mxCell>
        <mxCell id="uLhbfS_WnH59kJ8CV1LQ-4" value="Local Name Server" style="rounded=1;whiteSpace=wrap;html=1;" parent="1" vertex="1">
          <mxGeometry x="351" y="160" width="120" height="60" as="geometry" />
        </mxCell>
        <mxCell id="uLhbfS_WnH59kJ8CV1LQ-5" value="Root" style="rounded=1;whiteSpace=wrap;html=1;" parent="1" vertex="1">
          <mxGeometry x="600" y="-50" width="120" height="60" as="geometry" />
        </mxCell>
        <mxCell id="uLhbfS_WnH59kJ8CV1LQ-6" value="TLD" style="rounded=1;whiteSpace=wrap;html=1;" parent="1" vertex="1">
          <mxGeometry x="600" y="160" width="120" height="60" as="geometry" />
        </mxCell>
        <mxCell id="uLhbfS_WnH59kJ8CV1LQ-7" value="Authoritative " style="rounded=1;whiteSpace=wrap;html=1;" parent="1" vertex="1">
          <mxGeometry x="600" y="385" width="120" height="60" as="geometry" />
        </mxCell>
        <mxCell id="uLhbfS_WnH59kJ8CV1LQ-8" value="" style="endArrow=classic;startArrow=classic;html=1;rounded=0;entryX=-0.008;entryY=0.4;entryDx=0;entryDy=0;entryPerimeter=0;exitX=1.008;exitY=0.133;exitDx=0;exitDy=0;exitPerimeter=0;" parent="1" source="uLhbfS_WnH59kJ8CV1LQ-4" target="uLhbfS_WnH59kJ8CV1LQ-5" edge="1">
          <mxGeometry width="50" height="50" relative="1" as="geometry">
            <mxPoint x="380" y="190" as="sourcePoint" />
            <mxPoint x="430" y="140" as="targetPoint" />
          </mxGeometry>
        </mxCell>
        <mxCell id="uLhbfS_WnH59kJ8CV1LQ-9" value="" style="endArrow=classic;startArrow=classic;html=1;rounded=0;exitX=1;exitY=0.5;exitDx=0;exitDy=0;entryX=0;entryY=0.5;entryDx=0;entryDy=0;" parent="1" source="uLhbfS_WnH59kJ8CV1LQ-4" target="uLhbfS_WnH59kJ8CV1LQ-6" edge="1">
          <mxGeometry width="50" height="50" relative="1" as="geometry">
            <mxPoint x="450" y="260" as="sourcePoint" />
            <mxPoint x="500" y="210" as="targetPoint" />
          </mxGeometry>
        </mxCell>
        <mxCell id="uLhbfS_WnH59kJ8CV1LQ-10" value="" style="endArrow=classic;startArrow=classic;html=1;rounded=0;exitX=1;exitY=0.75;exitDx=0;exitDy=0;entryX=0;entryY=0.5;entryDx=0;entryDy=0;" parent="1" source="uLhbfS_WnH59kJ8CV1LQ-4" target="uLhbfS_WnH59kJ8CV1LQ-7" edge="1">
          <mxGeometry width="50" height="50" relative="1" as="geometry">
            <mxPoint x="440" y="290" as="sourcePoint" />
            <mxPoint x="490" y="240" as="targetPoint" />
          </mxGeometry>
        </mxCell>
        <mxCell id="uLhbfS_WnH59kJ8CV1LQ-11" value="www.google.com" style="text;html=1;strokeColor=none;fillColor=none;align=center;verticalAlign=middle;whiteSpace=wrap;rounded=0;" parent="1" vertex="1">
          <mxGeometry y="160" width="60" height="30" as="geometry" />
        </mxCell>
        <mxCell id="uLhbfS_WnH59kJ8CV1LQ-12" value="com domain" style="text;html=1;strokeColor=none;fillColor=none;align=center;verticalAlign=middle;whiteSpace=wrap;rounded=0;" parent="1" vertex="1">
          <mxGeometry x="741" y="176" width="80" height="30" as="geometry" />
        </mxCell>
        <mxCell id="uLhbfS_WnH59kJ8CV1LQ-15" value="google.com" style="text;html=1;strokeColor=none;fillColor=none;align=center;verticalAlign=middle;whiteSpace=wrap;rounded=0;" parent="1" vertex="1">
          <mxGeometry x="751" y="400" width="60" height="30" as="geometry" />
        </mxCell>
        <mxCell id="gX_tS0gkBQfEGyVwR0J8-1" value="1. what&#39;s the ip address for www.google.com" style="text;html=1;strokeColor=none;fillColor=none;align=center;verticalAlign=middle;whiteSpace=wrap;rounded=0;rotation=-55;" vertex="1" parent="1">
          <mxGeometry x="440" y="49.99999999999999" width="115.2" height="30" as="geometry" />
        </mxCell>
        <mxCell id="gX_tS0gkBQfEGyVwR0J8-2" value="&lt;div&gt;2. go ask com top level domain server&lt;br&gt;&lt;/div&gt;" style="text;html=1;strokeColor=none;fillColor=none;align=center;verticalAlign=middle;whiteSpace=wrap;rounded=0;rotation=-60;" vertex="1" parent="1">
          <mxGeometry x="503.15" y="80" width="98.68" height="30" as="geometry" />
        </mxCell>
        <mxCell id="gX_tS0gkBQfEGyVwR0J8-3" value="3. what&#39;s the ip address for www.google.com" style="text;html=1;strokeColor=none;fillColor=none;align=center;verticalAlign=middle;whiteSpace=wrap;rounded=0;rotation=0;" vertex="1" parent="1">
          <mxGeometry x="484.8" y="150" width="115.2" height="30" as="geometry" />
        </mxCell>
        <mxCell id="gX_tS0gkBQfEGyVwR0J8-4" value="&lt;div&gt;4. go ask google.com domain server&lt;br&gt;&lt;/div&gt;" style="text;html=1;strokeColor=none;fillColor=none;align=center;verticalAlign=middle;whiteSpace=wrap;rounded=0;rotation=0;" vertex="1" parent="1">
          <mxGeometry x="493.06" y="208" width="98.68" height="30" as="geometry" />
        </mxCell>
        <mxCell id="gX_tS0gkBQfEGyVwR0J8-5" value="5. what&#39;s the ip address for www.google.com" style="text;html=1;strokeColor=none;fillColor=none;align=center;verticalAlign=middle;whiteSpace=wrap;rounded=0;rotation=60;" vertex="1" parent="1">
          <mxGeometry x="529" y="317" width="115.2" height="30" as="geometry" />
        </mxCell>
        <mxCell id="gX_tS0gkBQfEGyVwR0J8-6" value="&lt;div&gt;6. xxx.xxx.xxx.xxx&lt;/div&gt;" style="text;html=1;strokeColor=none;fillColor=none;align=center;verticalAlign=middle;whiteSpace=wrap;rounded=0;rotation=60;" vertex="1" parent="1">
          <mxGeometry x="493.06" y="345" width="98.68" height="30" as="geometry" />
        </mxCell>
        <mxCell id="gX_tS0gkBQfEGyVwR0J8-9" value="Host" style="text;html=1;strokeColor=none;fillColor=none;align=center;verticalAlign=middle;whiteSpace=wrap;rounded=0;dashed=1;" vertex="1" parent="1">
          <mxGeometry x="142" y="279" width="60" height="30" as="geometry" />
        </mxCell>
        <mxCell id="gX_tS0gkBQfEGyVwR0J8-10" value="DNS Resolver" style="rounded=1;whiteSpace=wrap;html=1;dashed=1;rotation=90;" vertex="1" parent="1">
          <mxGeometry x="208" y="169" width="119" height="42" as="geometry" />
        </mxCell>
        <mxCell id="gX_tS0gkBQfEGyVwR0J8-13" value="" style="endArrow=classic;startArrow=classic;html=1;rounded=0;entryX=0;entryY=0.5;entryDx=0;entryDy=0;" edge="1" parent="1" target="uLhbfS_WnH59kJ8CV1LQ-4">
          <mxGeometry width="50" height="50" relative="1" as="geometry">
            <mxPoint x="290" y="190" as="sourcePoint" />
            <mxPoint x="450" y="250" as="targetPoint" />
          </mxGeometry>
        </mxCell>
        <mxCell id="gX_tS0gkBQfEGyVwR0J8-16" value="" style="endArrow=classic;startArrow=classic;html=1;rounded=0;exitX=1;exitY=0.5;exitDx=0;exitDy=0;entryX=0.5;entryY=1;entryDx=0;entryDy=0;" edge="1" parent="1" source="uLhbfS_WnH59kJ8CV1LQ-2" target="gX_tS0gkBQfEGyVwR0J8-10">
          <mxGeometry width="50" height="50" relative="1" as="geometry">
            <mxPoint x="400" y="300" as="sourcePoint" />
            <mxPoint x="450" y="250" as="targetPoint" />
          </mxGeometry>
        </mxCell>
      </root>
    </mxGraphModel>
  </diagram>
  <diagram id="VAX25WwatmfP8TyUycrF" name="application perspective">
    <mxGraphModel dx="1350" dy="763" grid="1" gridSize="10" guides="1" tooltips="1" connect="1" arrows="1" fold="1" page="1" pageScale="1" pageWidth="850" pageHeight="1100" math="0" shadow="0">
      <root>
        <mxCell id="zEyxH8hlWrWIj6ptMK8Q-0" />
        <mxCell id="zEyxH8hlWrWIj6ptMK8Q-1" parent="zEyxH8hlWrWIj6ptMK8Q-0" />
        <mxCell id="ZXpkFdp0IzXOBSVILWKI-15" value="" style="rounded=0;whiteSpace=wrap;html=1;dashed=1;fillOpacity=0;" vertex="1" parent="zEyxH8hlWrWIj6ptMK8Q-1">
          <mxGeometry x="135" y="88" width="180" height="250" as="geometry" />
        </mxCell>
        <mxCell id="ZXpkFdp0IzXOBSVILWKI-2" value="&lt;div&gt;function&lt;/div&gt;&lt;div&gt;call&lt;br&gt;&lt;/div&gt;" style="edgeStyle=orthogonalEdgeStyle;rounded=0;orthogonalLoop=1;jettySize=auto;html=1;exitX=0.25;exitY=1;exitDx=0;exitDy=0;entryX=0.25;entryY=0;entryDx=0;entryDy=0;" edge="1" parent="zEyxH8hlWrWIj6ptMK8Q-1" source="ZXpkFdp0IzXOBSVILWKI-0" target="ZXpkFdp0IzXOBSVILWKI-1">
          <mxGeometry relative="1" as="geometry" />
        </mxCell>
        <mxCell id="ZXpkFdp0IzXOBSVILWKI-0" value="application code" style="rounded=1;whiteSpace=wrap;html=1;" vertex="1" parent="zEyxH8hlWrWIj6ptMK8Q-1">
          <mxGeometry x="170" y="110" width="120" height="60" as="geometry" />
        </mxCell>
        <mxCell id="ZXpkFdp0IzXOBSVILWKI-1" value="resolver code" style="rounded=1;whiteSpace=wrap;html=1;" vertex="1" parent="zEyxH8hlWrWIj6ptMK8Q-1">
          <mxGeometry x="170" y="250" width="120" height="60" as="geometry" />
        </mxCell>
        <mxCell id="ZXpkFdp0IzXOBSVILWKI-4" value="function return" style="endArrow=classic;html=1;rounded=0;strokeWidth=1;exitX=0.75;exitY=0;exitDx=0;exitDy=0;entryX=0.75;entryY=1;entryDx=0;entryDy=0;" edge="1" parent="zEyxH8hlWrWIj6ptMK8Q-1" source="ZXpkFdp0IzXOBSVILWKI-1" target="ZXpkFdp0IzXOBSVILWKI-0">
          <mxGeometry width="50" height="50" relative="1" as="geometry">
            <mxPoint x="230" y="240" as="sourcePoint" />
            <mxPoint x="280" y="190" as="targetPoint" />
          </mxGeometry>
        </mxCell>
        <mxCell id="ZXpkFdp0IzXOBSVILWKI-5" value="&lt;div&gt;resolver &lt;br&gt;&lt;/div&gt;&lt;div&gt;configuration&lt;/div&gt;&lt;div&gt;files&lt;/div&gt;&lt;div&gt;(/etc/resolv.conf)&lt;br&gt;&lt;/div&gt;" style="ellipse;whiteSpace=wrap;html=1;" vertex="1" parent="zEyxH8hlWrWIj6ptMK8Q-1">
          <mxGeometry x="170" y="390" width="120" height="80" as="geometry" />
        </mxCell>
        <mxCell id="ZXpkFdp0IzXOBSVILWKI-6" value="local name server" style="rounded=1;whiteSpace=wrap;html=1;" vertex="1" parent="zEyxH8hlWrWIj6ptMK8Q-1">
          <mxGeometry x="425" y="250" width="120" height="60" as="geometry" />
        </mxCell>
        <mxCell id="ZXpkFdp0IzXOBSVILWKI-7" value="other name servers" style="rounded=1;whiteSpace=wrap;html=1;" vertex="1" parent="zEyxH8hlWrWIj6ptMK8Q-1">
          <mxGeometry x="650" y="250" width="120" height="60" as="geometry" />
        </mxCell>
        <mxCell id="ZXpkFdp0IzXOBSVILWKI-8" value="UDP request" style="endArrow=classic;html=1;rounded=0;strokeWidth=1;entryX=0;entryY=0.25;entryDx=0;entryDy=0;exitX=1;exitY=0.25;exitDx=0;exitDy=0;" edge="1" parent="zEyxH8hlWrWIj6ptMK8Q-1" source="ZXpkFdp0IzXOBSVILWKI-1" target="ZXpkFdp0IzXOBSVILWKI-6">
          <mxGeometry width="50" height="50" relative="1" as="geometry">
            <mxPoint x="330" y="310" as="sourcePoint" />
            <mxPoint x="380" y="260" as="targetPoint" />
          </mxGeometry>
        </mxCell>
        <mxCell id="ZXpkFdp0IzXOBSVILWKI-9" value="" style="endArrow=classic;html=1;rounded=0;strokeWidth=1;entryX=1;entryY=0.75;entryDx=0;entryDy=0;exitX=0;exitY=0.75;exitDx=0;exitDy=0;" edge="1" parent="zEyxH8hlWrWIj6ptMK8Q-1" source="ZXpkFdp0IzXOBSVILWKI-6" target="ZXpkFdp0IzXOBSVILWKI-1">
          <mxGeometry width="50" height="50" relative="1" as="geometry">
            <mxPoint x="420" y="295" as="sourcePoint" />
            <mxPoint x="450" y="280" as="targetPoint" />
          </mxGeometry>
        </mxCell>
        <mxCell id="ZXpkFdp0IzXOBSVILWKI-12" value="UDP response" style="edgeLabel;html=1;align=center;verticalAlign=middle;resizable=0;points=[];" vertex="1" connectable="0" parent="ZXpkFdp0IzXOBSVILWKI-9">
          <mxGeometry x="0.3037" relative="1" as="geometry">
            <mxPoint x="23" as="offset" />
          </mxGeometry>
        </mxCell>
        <mxCell id="ZXpkFdp0IzXOBSVILWKI-10" value="" style="endArrow=classic;html=1;rounded=0;strokeWidth=1;entryX=0;entryY=0.25;entryDx=0;entryDy=0;exitX=1;exitY=0.25;exitDx=0;exitDy=0;" edge="1" parent="zEyxH8hlWrWIj6ptMK8Q-1" source="ZXpkFdp0IzXOBSVILWKI-6" target="ZXpkFdp0IzXOBSVILWKI-7">
          <mxGeometry width="50" height="50" relative="1" as="geometry">
            <mxPoint x="400" y="330" as="sourcePoint" />
            <mxPoint x="450" y="280" as="targetPoint" />
          </mxGeometry>
        </mxCell>
        <mxCell id="ZXpkFdp0IzXOBSVILWKI-11" value="" style="endArrow=classic;html=1;rounded=0;strokeWidth=1;exitX=0;exitY=0.75;exitDx=0;exitDy=0;entryX=1;entryY=0.75;entryDx=0;entryDy=0;" edge="1" parent="zEyxH8hlWrWIj6ptMK8Q-1" source="ZXpkFdp0IzXOBSVILWKI-7" target="ZXpkFdp0IzXOBSVILWKI-6">
          <mxGeometry width="50" height="50" relative="1" as="geometry">
            <mxPoint x="400" y="330" as="sourcePoint" />
            <mxPoint x="450" y="280" as="targetPoint" />
          </mxGeometry>
        </mxCell>
        <mxCell id="ZXpkFdp0IzXOBSVILWKI-14" value="" style="endArrow=classic;html=1;rounded=0;strokeWidth=1;entryX=0.5;entryY=1;entryDx=0;entryDy=0;exitX=0.5;exitY=0;exitDx=0;exitDy=0;" edge="1" parent="zEyxH8hlWrWIj6ptMK8Q-1" source="ZXpkFdp0IzXOBSVILWKI-5" target="ZXpkFdp0IzXOBSVILWKI-1">
          <mxGeometry width="50" height="50" relative="1" as="geometry">
            <mxPoint x="200" y="380" as="sourcePoint" />
            <mxPoint x="250" y="330" as="targetPoint" />
          </mxGeometry>
        </mxCell>
        <mxCell id="ZXpkFdp0IzXOBSVILWKI-16" value="application" style="text;html=1;strokeColor=none;fillColor=none;align=center;verticalAlign=middle;whiteSpace=wrap;rounded=0;dashed=1;" vertex="1" parent="zEyxH8hlWrWIj6ptMK8Q-1">
          <mxGeometry x="195" y="50" width="60" height="30" as="geometry" />
        </mxCell>
      </root>
    </mxGraphModel>
  </diagram>
</mxfile>
